<svg xmlns="http://www.w3.org/2000/svg" width="276" height="24" viewBox="0 0 276 24" fill="none"><path d="M15.621 6.18714C15.7772 4.79996 15.5013 3.81429 14.7114 2.91534C13.7668 1.83901 12.0614 1.37793 9.87868 1.37793H3.54214C3.32605 1.37808 3.11727 1.45502 2.95374 1.59503C2.78876 1.73505 2.68071 1.92909 2.64713 2.14211L0.00739698 18.8753C-0.00574334 18.953 -0.00138076 19.0325 0.0205198 19.1083C0.0424203 19.1839 0.0789388 19.2542 0.13004 19.314C0.181141 19.3739 0.24537 19.4219 0.316911 19.4549C0.388453 19.4878 0.465843 19.5049 0.544684 19.5049H4.11446L3.85311 21.1627C3.83413 21.2788 3.84144 21.3975 3.87356 21.5105C3.90568 21.6237 3.96117 21.7285 4.03709 21.8179C4.11447 21.9072 4.20936 21.979 4.31594 22.0282C4.42252 22.0774 4.53788 22.103 4.65614 22.103H7.95289C8.50916 22.103 8.98079 21.7015 9.06985 21.1563L9.10194 20.9878L9.72393 17.0464L9.76335 16.834L9.76481 16.825C9.78087 16.7175 9.83489 16.6197 9.91811 16.549C10.0013 16.4785 10.1065 16.44 10.2145 16.4402H10.7065C12.3461 16.4402 13.8485 16.1087 15.0399 15.2616C15.5305 14.9119 15.9612 14.4806 16.3262 13.9599C16.9306 13.1184 17.3219 12.1428 17.465 11.1168C17.7789 9.50303 17.6344 8.06519 16.7277 7.03163C16.4474 6.71976 16.1145 6.4609 15.7436 6.26744L15.621 6.18714ZM5.88551 12.802C6.01253 12.735 6.1556 12.6998 6.30014 12.6996H8.16024C11.8133 12.6996 14.672 11.2178 15.5071 6.92796L15.5115 6.90737C15.7918 7.06798 16.0298 7.25705 16.2211 7.4746C16.9277 8.28156 17.1 9.46288 16.8036 10.9847C16.4517 12.7942 15.6823 13.9728 14.6501 14.7072C13.6105 15.4455 12.2644 15.7628 10.708 15.7628H10.216C9.94731 15.7625 9.68743 15.858 9.48156 16.0323C9.27716 16.2065 9.14137 16.448 9.09903 16.7136L9.05961 16.926L8.43762 20.8674L8.40698 21.0359L8.40553 21.041C8.388 21.148 8.33397 21.2455 8.25075 21.3157C8.16753 21.386 8.06387 21.4245 7.95436 21.4244H4.6576C4.63716 21.4244 4.61672 21.4201 4.5992 21.4118C4.58168 21.4035 4.56562 21.3914 4.55248 21.3762C4.53934 21.361 4.52912 21.3432 4.52474 21.3241C4.5189 21.3048 4.51743 21.2846 4.52035 21.2651L4.79048 19.5554L5.88551 12.802Z" fill="#616161" style="fill:#616161;fill:color(display-p3 0.3800 0.3800 0.3800);fill-opacity:1;"></path><path fill-rule="evenodd" clip-rule="evenodd" d="M42.0829 2.87695H46.2966H75.788C75.0989 6.28001 74.4229 9.60743 73.7498 12.9217C73.6067 13.6233 73.4636 14.3241 73.322 15.025C73.2899 15.1827 73.2576 15.3411 73.2255 15.4997C73.0474 16.3763 72.8694 17.2586 72.684 18.0518C72.2138 20.0682 70.4735 20.605 67.9374 20.605H35.1362C35.529 18.7248 35.9086 16.8035 36.2911 14.8704C36.7569 12.5129 37.2255 10.1377 37.7263 7.79801C37.7877 7.5079 37.8446 7.21195 37.9001 6.91527C38.0052 6.35549 38.1103 5.79352 38.2607 5.26528C38.7002 3.71633 40.2214 2.96514 42.0829 2.87695ZM61.6169 12.9765C61.487 14.0429 62.763 13.9161 63.2186 13.47C63.5544 13.1403 63.6478 12.552 63.7237 12.075C63.7267 12.06 63.7296 12.0451 63.731 12.0302C62.6886 11.9023 61.7264 12.0905 61.6169 12.9765ZM61.6768 10.4709C61.7147 10.3221 61.7527 10.1733 61.7819 10.0148C61.9688 10.0094 62.1834 9.992 62.4082 9.97375C63.439 9.89039 64.7049 9.78789 64.7574 10.714C64.7779 11.0571 64.6976 11.4291 64.6144 11.8118C64.5779 11.9791 64.5414 12.1485 64.5122 12.3183C64.5078 12.3453 64.5019 12.3722 64.4976 12.399C64.391 13.0229 64.293 13.5939 64.2857 14.2927H63.5266C63.515 14.0407 63.55 13.8366 63.588 13.6345C63.2244 14.2181 62.1732 14.6428 61.3088 14.2721C60.8606 14.0795 60.6269 13.3895 60.8371 12.6884C61.151 11.6417 62.3469 11.3974 63.8143 11.5367L63.8157 11.5319C63.88 11.3516 63.9676 11.1081 63.9165 10.8785C63.7602 10.1821 62.1381 10.5832 61.6169 10.714C61.6359 10.6319 61.6563 10.5515 61.6768 10.4709ZM68.4937 12.8531C68.5083 13.464 68.8032 13.8323 69.3974 13.8195C70.4764 13.7964 70.6531 12.6265 70.8181 11.5418C70.8648 11.2284 70.9113 10.9219 70.9785 10.6524C70.6529 10.5414 70.3333 10.4382 69.8895 10.4878C68.939 10.5944 68.4703 11.7832 68.4937 12.8531ZM71.0603 10.0764C71.1917 9.46741 71.2926 8.82836 71.3685 8.16375H72.2503C72.1525 8.7209 72.0459 9.26855 71.9394 9.81621C71.6576 11.2519 71.3772 12.6875 71.2648 14.2927H70.4647C70.4676 14.1205 70.4939 13.9709 70.5202 13.8212C70.529 13.7662 70.5392 13.7112 70.5465 13.6549C70.5363 13.6192 70.4923 13.6898 70.4471 13.7625C70.4253 13.7993 70.4019 13.8366 70.383 13.8608C70.307 13.9561 70.1902 14.0937 70.0749 14.1692C69.4821 14.5596 68.3083 14.4486 67.8994 13.984C67.6615 13.7147 67.5958 13.3368 67.5914 12.9557C67.5666 10.9859 68.895 9.38988 71.0603 10.0764ZM47.0428 13.1409C47.1333 13.984 48.2941 13.9916 48.7671 13.4905C49.1584 13.0756 49.4824 12.0498 49.3612 11.2282C49.2225 10.282 47.8559 10.3506 47.3916 10.9197C47.3522 11.1158 47.3188 11.3227 47.2852 11.537C47.2604 11.691 47.2355 11.849 47.2063 12.0098C47.1874 12.1171 47.1625 12.225 47.1377 12.3326C47.0764 12.6056 47.0136 12.8778 47.0428 13.1409ZM47.4122 10.3886C47.8064 10.0692 48.7175 9.73358 49.465 10.0148C51.0024 10.5934 50.1175 13.5484 48.9715 14.1692C48.4166 14.4702 47.0998 14.6189 46.8983 13.8402C46.7771 14.3461 46.6996 14.8958 46.6207 15.4454C46.5857 15.7002 46.5493 15.9549 46.5085 16.2053H45.6251C46.0223 14.1753 46.3975 12.1245 46.7143 10.0148H47.4734C47.4705 10.0834 47.456 10.1417 47.4429 10.1998C47.4283 10.258 47.4151 10.3163 47.4122 10.385V10.3886ZM47.3916 10.4056C47.3975 10.3998 47.4049 10.3942 47.4122 10.3886C47.4137 10.4026 47.4033 10.4045 47.3916 10.4056ZM51.5792 11.4955H53.6524C53.8408 10.7011 53.3852 10.4429 52.7486 10.4672C52.0741 10.4931 51.6449 11.0181 51.5792 11.4955ZM51.2506 10.57C51.6332 10.1656 52.1734 9.98178 52.8114 9.93258C53.5385 9.87637 54.2538 10.0275 54.4524 10.6112C54.5662 10.9432 54.4976 11.3011 54.4305 11.6483C54.4071 11.7636 54.3852 11.8776 54.3706 11.9892C53.4172 11.9647 52.4289 11.9588 51.477 11.9892C51.328 12.6208 51.331 13.3476 51.785 13.6345C52.3851 14.0145 53.3969 13.7093 53.9808 13.4905C53.9662 13.5787 53.9488 13.6638 53.9313 13.749C53.9021 13.8912 53.8729 14.0334 53.8583 14.1898C52.4406 14.5352 50.671 14.5863 50.5119 13.1615C50.3994 12.1628 50.7805 11.0662 51.2506 10.57ZM45.0309 10.0764C45.0294 10.0473 45.0265 10.0183 45.0513 10.0148H45.9332C45.6295 11.3894 45.3857 12.8255 45.174 14.2927H44.292C44.5723 12.9223 44.8367 11.5338 45.0309 10.0764ZM66.4 10.6934C66.654 10.3002 67.3037 9.64452 68.0834 10.0352C68.0498 10.1472 68.0279 10.2729 68.0075 10.3986C67.9929 10.4848 67.9797 10.5708 67.9608 10.6524C66.5781 10.2609 66.3022 11.5629 66.1124 12.7502C66.089 12.8975 66.0642 13.0352 66.0408 13.1685C65.9737 13.5387 65.9123 13.8758 65.9079 14.2927H65.0042C65.3006 12.9093 65.5532 11.4837 65.7634 10.0148H66.5445C66.5109 10.1144 66.4933 10.2285 66.4758 10.3429C66.4568 10.4658 66.4379 10.5889 66.4 10.6934ZM58.0865 12.4622C58.0661 12.7265 58.0865 13.0743 58.1683 13.2848C58.4486 14.0096 59.6532 13.8391 60.2824 13.5111C60.2635 13.6038 60.2474 13.7001 60.2313 13.7961C60.2094 13.9232 60.189 14.05 60.1598 14.1692C59.0064 14.5682 57.5827 14.5115 57.2659 13.47C56.9943 12.5798 57.3784 11.165 57.9639 10.5494C58.561 9.92075 59.6895 9.79972 60.878 9.99419C60.8663 10.0895 60.8502 10.182 60.8343 10.2744C60.8124 10.4109 60.7891 10.5474 60.7759 10.6934C60.0503 10.4396 59.1421 10.3649 58.6822 10.8169C58.3479 11.1444 58.1318 11.8679 58.0865 12.4622ZM55.9928 10.7346C56.2776 10.2332 56.8937 9.6981 57.6763 10.0148C57.666 10.1125 57.6471 10.2018 57.6281 10.2912C57.6033 10.4056 57.5799 10.5202 57.5726 10.6524C56.7448 10.3561 56.171 10.8993 55.952 11.5367C55.7549 12.1066 55.6716 12.8432 55.5957 13.5215C55.5651 13.7926 55.5359 14.0546 55.4994 14.2927H54.6175C54.6525 14.1064 54.6876 13.9202 54.7241 13.7342C54.9577 12.5171 55.1913 11.3 55.3563 10.0148H56.1358C56.1153 10.1095 56.098 10.2087 56.0819 10.3077C56.0556 10.4545 56.0308 10.6014 55.9928 10.7346ZM43.0394 10.714C43.181 9.91068 43.3241 9.10693 43.4497 8.28712L44.4761 8.28726C44.0731 10.2411 43.7315 12.2583 43.4088 14.2928H42.4028C42.4934 13.719 42.5985 13.1606 42.7036 12.6023C42.7839 12.1807 42.8642 11.7592 42.9372 11.3311C42.1882 11.2598 41.2728 11.2836 40.4683 11.3044C40.3865 11.3066 40.3062 11.3087 40.2274 11.3106C40.0493 12.128 39.9164 12.9896 39.7821 13.8513C39.7602 13.9985 39.7368 14.1458 39.7134 14.2928H38.7075C38.982 12.9267 39.22 11.5252 39.4594 10.1237C39.5631 9.51048 39.6682 8.89727 39.7748 8.28712H40.7603C40.6785 8.67578 40.6083 9.07583 40.5382 9.47573C40.4652 9.88571 40.3938 10.2955 40.3091 10.6934C41.0114 10.746 41.7473 10.734 42.4802 10.722C42.6671 10.7191 42.854 10.716 43.0394 10.714ZM46.098 8.28712C46.3565 8.51751 46.1302 9.07072 45.9535 9.19205C45.8425 9.26929 45.466 9.35806 45.2966 9.19205C45.1243 9.02166 45.2265 8.56277 45.339 8.41049C45.4076 8.31588 45.5098 8.25558 45.6879 8.2255C45.8792 8.19309 46.0163 8.21426 46.098 8.28712Z" fill="#616161" style="fill:#616161;fill:color(display-p3 0.3800 0.3800 0.3800);fill-opacity:1;"></path><path d="M123.94 22.6781H95.4969C94.9158 22.6781 94.3595 22.4476 93.9493 22.0373C93.539 21.6269 93.3085 21.0705 93.3085 20.4902V11.2863H94.8852L95.2401 10.4258H96.0358L96.3905 11.2827H99.4917V10.6309L99.769 11.2872H101.38L101.657 10.62V11.2854H109.363V9.87782H109.509C109.613 9.88147 109.642 9.89067 109.642 10.0638V11.2872H113.629V10.96C114.037 11.1669 114.517 11.2882 115.027 11.2882L115.113 11.2872H115.108H116.786L117.145 10.4303H117.941L118.293 11.2872H121.525V10.4722L122.013 11.2872H124.599V5.90492H122.039V6.54033L121.681 5.90492H119.05V6.54033L118.722 5.90492H115.168C114.631 5.87776 114.094 5.98858 113.61 6.22686L113.629 6.21853V5.90492H111.179V6.21853C110.883 5.98478 110.508 5.87294 110.132 5.90594H110.137H101.182L100.582 7.29619L99.9646 5.90594H97.144V6.54135L96.8329 5.90594H94.4267L93.3114 8.45852V2.98865C93.3114 2.40843 93.5419 1.85186 93.9522 1.44159C94.3625 1.03132 94.9187 0.800781 95.4998 0.800781H123.943C124.522 0.800781 125.079 1.03132 125.489 1.44159C125.899 1.85186 126.13 2.40843 126.13 2.98865V12.5425H124.423C124.395 12.5408 124.362 12.5408 124.331 12.5408C123.936 12.5408 123.568 12.6592 123.261 12.8626L123.268 12.858V12.5425H120.744C120.348 12.5208 119.959 12.6329 119.636 12.8607L119.642 12.857V12.5417H115.131V12.857C114.764 12.649 114.346 12.5402 113.923 12.5417H113.888H110.914V12.857C110.525 12.6081 110.064 12.4974 109.605 12.5425L109.613 12.5417H106.285L105.523 13.3657L104.81 12.5417H99.8378V17.9276H104.717L105.501 17.0907L106.241 17.9276H109.249V16.6668H109.668C110.071 16.6826 110.474 16.6152 110.849 16.469L110.829 16.4763V17.9293H113.309V16.5264H113.429C113.579 16.5264 113.596 16.5318 113.596 16.685V17.9304H121.131L121.223 17.9321C121.655 17.9321 122.058 17.8026 122.394 17.5811L122.385 17.5856V17.9304H124.775L124.889 17.9321C125.337 17.9321 125.764 17.84 126.149 17.6732L126.128 17.6814V20.4911C126.128 21.0713 125.898 21.6279 125.488 22.0382C125.077 22.4484 124.521 22.6781 123.94 22.6781ZM112.549 17.1727H111.62V13.312H113.75C114.134 13.2764 114.523 13.341 114.875 13.4997L114.86 13.4943C115.145 13.6511 115.336 13.9502 115.336 14.2928L115.333 14.354V14.3512L115.335 14.3858C115.335 14.829 115.067 15.21 114.685 15.3759L114.677 15.3787C114.86 15.4442 115.013 15.5563 115.127 15.7013L115.13 15.7032C115.259 15.9162 115.313 16.1662 115.283 16.4134V16.4078V17.1719H114.358V16.6886C114.401 16.4256 114.349 16.1555 114.209 15.9284L114.212 15.9329C114.115 15.8599 114.006 15.807 113.888 15.7778C113.771 15.7485 113.65 15.7432 113.53 15.7625L113.536 15.7615H112.549V17.1727ZM112.549 14.1096V14.9766H113.67C113.828 14.9913 113.988 14.9628 114.131 14.8945L114.126 14.8973C114.184 14.8595 114.232 14.8075 114.266 14.7462C114.299 14.6848 114.317 14.6162 114.317 14.5463V14.5254C114.321 14.4558 114.305 14.387 114.272 14.3257C114.239 14.2644 114.188 14.2138 114.127 14.1798L114.126 14.1789C113.987 14.117 113.835 14.0919 113.685 14.1059H113.688L112.549 14.1096ZM104.322 17.1719H100.669V13.312H104.378L105.514 14.5774L106.687 13.312H109.634C110.681 13.312 111.189 13.7285 111.189 14.5837C111.189 15.4543 110.664 15.8773 109.585 15.8773H108.431V17.1708H106.638L105.503 15.8955L104.322 17.1719ZM107.513 13.7259L106.097 15.2483L107.513 16.82V13.7259ZM101.588 15.5993V16.3668H103.856L104.904 15.2346L103.897 14.1096H101.587V14.8116H103.613V15.5984L101.588 15.5993ZM108.431 14.1106V15.0934H109.623C109.988 15.0934 110.198 14.9074 110.198 14.5828C110.198 14.2728 110.003 14.1096 109.633 14.1096L108.431 14.1106ZM124.876 17.1736H123.095V16.344H124.869C125.001 16.3624 125.136 16.3277 125.244 16.2474L125.242 16.2484C125.276 16.2166 125.304 16.178 125.323 16.1352C125.342 16.0925 125.35 16.0462 125.35 15.9995V15.9967V15.9849C125.35 15.9387 125.34 15.8932 125.321 15.8513C125.302 15.8094 125.274 15.7723 125.238 15.7424C125.144 15.6742 125.028 15.6437 124.912 15.6566L124.743 15.6512C123.911 15.6293 122.967 15.6038 122.967 14.4616C122.967 13.9055 123.315 13.312 124.289 13.312H126.128V14.1343H124.447C124.317 14.1197 124.185 14.1458 124.071 14.209L124.074 14.2073C124.029 14.2368 123.994 14.2781 123.969 14.3264C123.946 14.3749 123.936 14.4288 123.94 14.4825V14.4917C123.94 14.553 123.96 14.6129 123.995 14.6627C124.032 14.7124 124.083 14.7495 124.142 14.7688L124.143 14.7697C124.258 14.8053 124.379 14.8202 124.501 14.8135H124.498L124.998 14.8262C125.375 14.7885 125.752 14.9009 126.047 15.1389L126.044 15.137C126.072 15.1589 126.095 15.1826 126.117 15.2091L126.128 16.6795C125.975 16.8587 125.78 16.9974 125.561 17.0834C125.342 17.1694 125.104 17.2001 124.87 17.1727L124.876 17.1736ZM121.275 17.1736H119.478V16.344H121.267C121.401 16.3616 121.535 16.3269 121.645 16.2474L121.643 16.2484C121.677 16.2164 121.705 16.1779 121.722 16.1351C121.741 16.0923 121.751 16.046 121.751 15.9995V15.9967V15.9904C121.751 15.9434 121.741 15.8971 121.721 15.8543C121.702 15.8116 121.674 15.7735 121.639 15.7424C121.543 15.6742 121.424 15.6437 121.307 15.6566L121.14 15.6512C120.309 15.6293 119.367 15.6038 119.367 14.4616C119.367 13.9055 119.713 13.312 120.685 13.312H122.535V14.1343H120.843C120.713 14.1198 120.583 14.1459 120.47 14.209L120.474 14.2073C120.426 14.2401 120.388 14.2854 120.363 14.3382C120.34 14.3911 120.329 14.4495 120.335 14.5073C120.342 14.5651 120.363 14.6202 120.398 14.6666C120.433 14.7132 120.48 14.7494 120.534 14.7714L120.535 14.7725C120.652 14.8084 120.775 14.8231 120.897 14.8161H120.894L121.392 14.829C121.77 14.7925 122.15 14.9049 122.448 15.1426L122.445 15.1398C122.544 15.2502 122.621 15.3803 122.668 15.5216C122.715 15.6631 122.733 15.8127 122.719 15.9612V15.9567C122.722 16.7616 122.235 17.1719 121.273 17.1719L121.275 17.1736ZM118.926 17.1736H115.844V13.3111H118.923V14.1087H116.765V14.8107H118.872V15.5974H116.765V16.3651L118.926 16.3687V17.1708V17.1736ZM120.722 10.5315H118.843L118.484 9.67094H116.567L116.219 10.5315H115.139C114.654 10.557 114.178 10.4043 113.797 10.1021L113.803 10.1049C113.622 9.90571 113.485 9.67108 113.4 9.41602C113.315 9.16095 113.285 8.89099 113.309 8.62351V8.63081C113.286 8.35822 113.318 8.08388 113.403 7.82414C113.489 7.5644 113.628 7.32495 113.809 7.12026L113.807 7.12201C113.999 6.95469 114.222 6.82839 114.464 6.7513C114.707 6.67407 114.962 6.64764 115.215 6.67349L115.207 6.67261H116.101V7.49578H115.226C115.098 7.47928 114.968 7.49125 114.845 7.53082C114.723 7.57039 114.609 7.63652 114.515 7.72456C114.321 7.97423 114.226 8.28668 114.251 8.60248V8.59796C114.222 8.92238 114.313 9.24621 114.507 9.5077L114.504 9.50406C114.685 9.65225 114.917 9.7235 115.15 9.70291H115.146H115.561L116.865 6.66706H118.252L119.813 10.3136V6.66706H121.217L122.838 9.35455V6.66706H123.787V10.5252H122.47L120.719 7.62791V10.5252L120.722 10.5315ZM117.532 7.32437L116.897 8.86325H118.17L117.532 7.32437ZM108.598 10.5297H107.677V6.66983H109.798C110.186 6.62968 110.576 6.69553 110.93 6.86037L110.917 6.85497C111.058 6.93337 111.176 7.04842 111.258 7.188C111.341 7.32758 111.385 7.48687 111.385 7.64893L111.382 7.71274V7.70997V7.73829C111.382 7.94882 111.322 8.15498 111.208 8.33179C111.093 8.50875 110.931 8.64891 110.74 8.73564L110.732 8.73827C110.915 8.80762 111.07 8.91887 111.186 9.06108L111.188 9.06283C111.318 9.27673 111.372 9.52844 111.341 9.77664V9.77124V10.5289H110.411L110.407 10.0419V9.96908C110.441 9.73094 110.388 9.48902 110.258 9.28622L110.261 9.29074C110.164 9.21979 110.055 9.16868 109.938 9.14036C109.823 9.11204 109.702 9.10707 109.583 9.12576L109.589 9.12488H108.599V10.5289L108.598 10.5297ZM108.598 7.473V8.32989H109.718C109.877 8.34712 110.036 8.31865 110.179 8.24784L110.173 8.24974C110.232 8.21426 110.28 8.16432 110.313 8.10475C110.347 8.04519 110.366 7.97803 110.366 7.9097L110.364 7.88414C110.369 7.81494 110.353 7.74661 110.319 7.68631C110.284 7.62587 110.233 7.57666 110.172 7.54498L110.17 7.5441C110.032 7.48453 109.88 7.45957 109.729 7.4711H109.732L108.598 7.473ZM98.8303 10.5297H96.9555L96.6007 9.66904H94.6793L94.3217 10.5297H93.3185L94.9713 6.66983H96.3423L97.9104 10.3227V6.66983H99.4158L100.623 9.2871L101.733 6.66983H103.269V10.5278H102.32L102.318 7.50848L100.981 10.5289H100.172L98.8303 7.50395V10.5297ZM95.6356 7.32437L95.0064 8.86325H96.2664L95.6356 7.32437ZM112.854 10.5289H111.914V6.66983H112.855V10.5278L112.854 10.5289ZM107.033 10.5289H103.957V6.66983H107.039V7.47212H104.879V8.16769H106.986V8.9599H104.878V9.73109H107.036V10.5278L107.033 10.5289Z" fill="#616161" style="fill:#616161;fill:color(display-p3 0.3800 0.3800 0.3800);fill-opacity:1;"></path><path opacity="0.5" d="M161.961 21.0123C160.129 21.0126 158.336 20.4692 156.81 19.4507C155.286 18.4321 154.097 16.9842 153.395 15.2903C152.693 13.5962 152.509 11.7322 152.866 9.93371C153.224 8.13524 154.107 6.48307 155.404 5.18626C156.7 3.88946 158.352 3.00613 160.15 2.64813C161.949 2.29013 163.812 2.47351 165.507 3.17492C167.201 3.87646 168.649 5.06464 169.668 6.58906C170.688 8.11363 171.231 9.90597 171.232 11.7398C171.229 14.1976 170.251 16.5554 168.514 18.2936C166.776 20.0316 164.42 21.0094 161.961 21.0123Z" fill="#616161" style="fill:#616161;fill:color(display-p3 0.3800 0.3800 0.3800);fill-opacity:1;"></path><path d="M152.941 21.0114C151.107 21.0114 149.314 20.4677 147.79 19.4489C146.266 18.4302 145.077 16.9821 144.375 15.288C143.673 13.594 143.49 11.7298 143.848 9.93131C144.206 8.13284 145.089 6.48081 146.385 5.1843C147.682 3.88764 149.333 3.00461 151.132 2.6469C152.931 2.28919 154.795 2.47272 156.489 3.17441C158.182 3.87625 159.631 5.06458 160.65 6.58915C161.668 8.11386 162.212 9.90635 162.212 11.74C162.209 14.1981 161.232 16.5549 159.494 18.2931C157.756 20.0311 155.398 21.0088 152.941 21.0114Z" fill="#616161" style="fill:#616161;fill:color(display-p3 0.3800 0.3800 0.3800);fill-opacity:1;"></path><path fill-rule="evenodd" clip-rule="evenodd" d="M200.662 13.4631L204.096 16.8976C204.907 17.7077 205.774 17.913 206.812 17.913L202.568 22.1462C201.925 22.7873 201.055 23.1474 200.148 23.1474C199.242 23.1474 198.371 22.7873 197.729 22.1462L193.496 17.9245C195.494 17.9245 196.107 17.3107 196.495 16.9219L196.508 16.9089L199.954 13.4631C200.08 13.3376 200.229 13.3148 200.309 13.3148C200.388 13.3148 200.537 13.3376 200.662 13.4631ZM199.954 10.0173L196.508 6.57131C196.501 6.56386 196.494 6.55612 196.486 6.54838C196.129 6.1898 195.497 5.55585 193.53 5.55585L197.764 1.33401C198.405 0.693053 199.275 0.333008 200.183 0.333008C201.09 0.333008 201.96 0.693053 202.601 1.33401L206.847 5.56724C205.807 5.56724 204.883 5.76128 204.074 6.60561L200.662 10.0173C200.57 10.1085 200.434 10.1656 200.309 10.1656C200.183 10.1656 200.046 10.1085 199.954 10.0173ZM207.987 6.70782L210.555 9.28653C211.205 9.93391 211.572 10.8121 211.576 11.7293C211.58 12.6465 211.221 13.5281 210.577 14.1815L208.011 16.7602H206.572C205.945 16.7602 205.352 16.5092 204.918 16.0756L201.484 12.6411C201.164 12.3217 200.742 12.1619 200.319 12.1619C199.897 12.1619 199.475 12.3217 199.155 12.6411L195.71 16.0869C195.264 16.5206 194.672 16.7716 194.056 16.7716H192.366L189.754 14.1473C189.113 13.5055 188.753 12.6354 188.753 11.7283C188.753 10.8212 189.113 9.95114 189.754 9.30931L192.366 6.68504H194.044C194.672 6.68504 195.264 6.93602 195.698 7.36965L199.145 10.8269C199.458 11.1287 199.874 11.3001 200.309 11.3061C200.731 11.3061 201.153 11.1463 201.473 10.8269L204.895 7.40382C205.317 6.9588 205.933 6.70782 206.549 6.70782H207.987Z" fill="#616161" style="fill:#616161;fill:color(display-p3 0.3800 0.3800 0.3800);fill-opacity:1;"></path><path d="M272.525 19.1029L272.086 16.9044H267.173L266.39 19.0873L262.452 19.0952C264.327 14.5868 266.206 10.0802 268.088 5.57512C268.409 4.81093 268.979 4.42198 269.817 4.42592C270.458 4.43176 271.503 4.43176 272.954 4.42796L276 19.0971L272.525 19.1029ZM268.278 13.8928H271.445L270.262 8.3816L268.278 13.8928ZM242.894 4.42402L246.853 4.42796L240.733 19.105L236.724 19.101C235.716 15.2242 234.72 11.3443 233.738 7.46104C233.542 6.68708 233.155 6.14584 232.411 5.88975C231.311 5.52124 230.206 5.16805 229.096 4.83049V4.42986H235.423C236.518 4.42986 237.156 4.95957 237.362 6.04613C237.569 7.13473 238.089 9.90587 238.925 14.3599L242.894 4.42402ZM252.295 4.42796L249.163 19.101L245.396 19.0971L248.522 4.42402L252.295 4.42796ZM259.935 4.15625C261.064 4.15625 262.483 4.50797 263.301 4.83049L262.641 7.87336C261.902 7.57639 260.686 7.17575 259.664 7.18933C258.179 7.21473 257.261 7.83817 257.261 8.4362C257.261 9.40946 258.855 9.90003 260.497 10.9632C262.371 12.1749 262.617 13.2634 262.593 14.4459C262.568 16.9005 260.497 19.3219 256.128 19.3219C254.133 19.2926 253.415 19.1245 251.788 18.548L252.476 15.3721C254.132 16.0659 254.834 16.2868 256.249 16.2868C257.544 16.2868 258.656 15.7631 258.665 14.8503C258.674 14.2014 258.275 13.8791 256.821 13.0778C255.367 12.2746 253.326 11.1625 253.353 8.93071C253.387 6.07342 256.094 4.15625 259.938 4.15625H259.935Z" fill="#616161" style="fill:#616161;fill:color(display-p3 0.3800 0.3800 0.3800);fill-opacity:1;"></path></svg>