<svg xmlns="http://www.w3.org/2000/svg" width="127" height="43" viewBox="0 0 127 43" fill="none"><path d="M53.684 12.0306C53.4432 11.5891 53.1121 11.253 52.6907 11.0222C52.2693 10.7915 51.7777 10.6761 51.2158 10.6761C50.5938 10.6761 50.0419 10.8165 49.5603 11.0975C49.0787 11.3784 48.7025 11.7797 48.4316 12.3015C48.1607 12.8232 48.0252 13.4252 48.0252 14.1075C48.0252 14.8098 48.1607 15.4218 48.4316 15.9436C48.7125 16.4653 49.0988 16.8666 49.5904 17.1476C50.0821 17.4285 50.654 17.569 51.3061 17.569C52.1088 17.569 52.766 17.3583 53.2777 16.9369C53.7894 16.5054 54.1255 15.9085 54.286 15.1459H50.674V13.5356H56.363V15.3717C56.2225 16.1041 55.9215 16.7814 55.46 17.4034C54.9984 18.0255 54.4014 18.5272 53.669 18.9084C52.9466 19.2797 52.1339 19.4653 51.2309 19.4653C50.2175 19.4653 49.2995 19.2395 48.4767 18.788C47.664 18.3265 47.0219 17.6894 46.5503 16.8767C46.0888 16.064 45.858 15.1409 45.858 14.1075C45.858 13.074 46.0888 12.151 46.5503 11.3383C47.0219 10.5155 47.664 9.87843 48.4767 9.42693C49.2995 8.96539 50.2125 8.73463 51.2158 8.73463C52.3998 8.73463 53.4282 9.02559 54.3011 9.60753C55.174 10.1794 55.776 10.9871 56.1071 12.0306H53.684ZM61.6241 19.5104C60.8214 19.5104 60.099 19.3348 59.4569 18.9837C58.8148 18.6225 58.3081 18.1158 57.9369 17.4636C57.5757 16.8115 57.3951 16.059 57.3951 15.2061C57.3951 14.3533 57.5807 13.6008 57.9519 12.9486C58.3332 12.2965 58.8499 11.7948 59.5021 11.4436C60.1542 11.0824 60.8816 10.9018 61.6843 10.9018C62.487 10.9018 63.2144 11.0824 63.8666 11.4436C64.5187 11.7948 65.0304 12.2965 65.4017 12.9486C65.7829 13.6008 65.9736 14.3533 65.9736 15.2061C65.9736 16.059 65.7779 16.8115 65.3866 17.4636C65.0053 18.1158 64.4836 18.6225 63.8214 18.9837C63.1692 19.3348 62.4368 19.5104 61.6241 19.5104ZM61.6241 17.6743C62.0054 17.6743 62.3616 17.584 62.6927 17.4034C63.0338 17.2128 63.3047 16.9319 63.5054 16.5606C63.706 16.1894 63.8064 15.7379 63.8064 15.2061C63.8064 14.4135 63.5957 13.8065 63.1743 13.3851C62.7629 12.9536 62.2562 12.7379 61.6542 12.7379C61.0522 12.7379 60.5455 12.9536 60.1342 13.3851C59.7328 13.8065 59.5322 14.4135 59.5322 15.2061C59.5322 15.9988 59.7278 16.6108 60.1191 17.0422C60.5204 17.4636 61.0221 17.6743 61.6241 17.6743ZM71.2214 19.5104C70.4187 19.5104 69.6963 19.3348 69.0542 18.9837C68.4121 18.6225 67.9054 18.1158 67.5342 17.4636C67.173 16.8115 66.9924 16.059 66.9924 15.2061C66.9924 14.3533 67.178 13.6008 67.5492 12.9486C67.9305 12.2965 68.4472 11.7948 69.0994 11.4436C69.7515 11.0824 70.4789 10.9018 71.2816 10.9018C72.0843 10.9018 72.8117 11.0824 73.4639 11.4436C74.116 11.7948 74.6277 12.2965 74.999 12.9486C75.3802 13.6008 75.5709 14.3533 75.5709 15.2061C75.5709 16.059 75.3752 16.8115 74.9839 17.4636C74.6026 18.1158 74.0809 18.6225 73.4187 18.9837C72.7665 19.3348 72.0341 19.5104 71.2214 19.5104ZM71.2214 17.6743C71.6027 17.6743 71.9589 17.584 72.29 17.4034C72.6311 17.2128 72.902 16.9319 73.1027 16.5606C73.3033 16.1894 73.4037 15.7379 73.4037 15.2061C73.4037 14.4135 73.193 13.8065 72.7716 13.3851C72.3602 12.9536 71.8535 12.7379 71.2515 12.7379C70.6495 12.7379 70.1428 12.9536 69.7315 13.3851C69.3301 13.8065 69.1295 14.4135 69.1295 15.2061C69.1295 15.9988 69.3251 16.6108 69.7164 17.0422C70.1177 17.4636 70.6194 17.6743 71.2214 17.6743ZM80.3823 10.9018C81.0043 10.9018 81.5512 11.0272 82.0227 11.2781C82.4943 11.5189 82.8655 11.8349 83.1364 12.2262V11.0373H85.2585V19.4352C85.2585 20.2077 85.103 20.895 84.7919 21.497C84.4809 22.1091 84.0143 22.5907 83.3923 22.9418C82.7702 23.303 82.0177 23.4836 81.1348 23.4836C79.9508 23.4836 78.9776 23.2077 78.2151 22.6559C77.4626 22.104 77.0362 21.3515 76.9358 20.3984H79.0278C79.1381 20.7796 79.3739 21.0806 79.7351 21.3014C80.1064 21.5321 80.5528 21.6475 81.0746 21.6475C81.6866 21.6475 82.1833 21.4619 82.5645 21.0907C82.9458 20.7295 83.1364 20.1776 83.1364 19.4352V18.1409C82.8655 18.5322 82.4893 18.8583 82.0077 19.1191C81.5361 19.38 80.9943 19.5104 80.3823 19.5104C79.6799 19.5104 79.0378 19.3298 78.4559 18.9686C77.8739 18.6074 77.4124 18.1007 77.0713 17.4486C76.7402 16.7864 76.5746 16.0289 76.5746 15.176C76.5746 14.3332 76.7402 13.5857 77.0713 12.9336C77.4124 12.2814 77.8689 11.7797 78.4408 11.4286C79.0228 11.0774 79.6699 10.9018 80.3823 10.9018ZM83.1364 15.2061C83.1364 14.6944 83.0361 14.258 82.8354 13.8968C82.6348 13.5255 82.3639 13.2446 82.0227 13.054C81.6816 12.8533 81.3154 12.753 80.9241 12.753C80.5328 12.753 80.1716 12.8483 79.8405 13.0389C79.5094 13.2296 79.2385 13.5105 79.0278 13.8817C78.8271 14.2429 78.7268 14.6744 78.7268 15.176C78.7268 15.6777 78.8271 16.1192 79.0278 16.5004C79.2385 16.8717 79.5094 17.1576 79.8405 17.3583C80.1816 17.5589 80.5428 17.6593 80.9241 17.6593C81.3154 17.6593 81.6816 17.564 82.0227 17.3733C82.3639 17.1727 82.6348 16.8917 82.8354 16.5305C83.0361 16.1593 83.1364 15.7178 83.1364 15.2061ZM89.4233 8.23798V19.375H87.3163V8.23798H89.4233ZM99.2558 15.0255C99.2558 15.3265 99.2357 15.5974 99.1956 15.8382H93.1004C93.1505 16.4402 93.3612 16.9118 93.7325 17.2529C94.1037 17.5941 94.5602 17.7646 95.102 17.7646C95.8846 17.7646 96.4415 17.4285 96.7726 16.7563H99.0451C98.8043 17.5589 98.3428 18.2211 97.6605 18.7429C96.9782 19.2546 96.1405 19.5104 95.1472 19.5104C94.3445 19.5104 93.6221 19.3348 92.98 18.9837C92.3479 18.6225 91.8512 18.1158 91.49 17.4636C91.1388 16.8115 90.9633 16.059 90.9633 15.2061C90.9633 14.3433 91.1388 13.5857 91.49 12.9336C91.8412 12.2814 92.3328 11.7797 92.9649 11.4286C93.597 11.0774 94.3244 10.9018 95.1472 10.9018C95.9398 10.9018 96.6471 11.0724 97.2692 11.4135C97.9013 11.7547 98.3879 12.2413 98.7291 12.8734C99.0802 13.4954 99.2558 14.2128 99.2558 15.0255ZM97.0736 14.4235C97.0635 13.8817 96.8679 13.4503 96.4866 13.1292C96.1053 12.7981 95.6388 12.6326 95.087 12.6326C94.5652 12.6326 94.1238 12.7931 93.7626 13.1142C93.4114 13.4252 93.1957 13.8617 93.1154 14.4235H97.0736ZM50.0419 25.8701C51.1456 25.8701 52.1138 26.0858 52.9466 26.5172C53.7894 26.9487 54.4366 27.5657 54.8881 28.3684C55.3496 29.161 55.5804 30.0841 55.5804 31.1376C55.5804 32.1911 55.3496 33.1141 54.8881 33.9068C54.4366 34.6894 53.7894 35.2964 52.9466 35.7278C52.1138 36.1593 51.1456 36.375 50.0419 36.375H46.3697V25.8701H50.0419ZM49.9667 34.584C51.0704 34.584 51.9232 34.283 52.5252 33.681C53.1272 33.079 53.4282 32.2312 53.4282 31.1376C53.4282 30.0439 53.1272 29.1911 52.5252 28.5791C51.9232 27.957 51.0704 27.646 49.9667 27.646H48.4767V34.584H49.9667ZM60.8598 36.5104C60.0572 36.5104 59.3348 36.3348 58.6926 35.9837C58.0505 35.6225 57.5438 35.1158 57.1726 34.4636C56.8114 33.8115 56.6308 33.059 56.6308 32.2061C56.6308 31.3533 56.8164 30.6008 57.1876 29.9486C57.5689 29.2965 58.0856 28.7948 58.7378 28.4436C59.39 28.0824 60.1174 27.9018 60.92 27.9018C61.7227 27.9018 62.4501 28.0824 63.1023 28.4436C63.7545 28.7948 64.2662 29.2965 64.6374 29.9486C65.0187 30.6008 65.2093 31.3533 65.2093 32.2061C65.2093 33.059 65.0136 33.8115 64.6223 34.4636C64.2411 35.1158 63.7193 35.6225 63.0571 35.9837C62.405 36.3348 61.6725 36.5104 60.8598 36.5104ZM60.8598 34.6743C61.2411 34.6743 61.5973 34.584 61.9284 34.4034C62.2695 34.2128 62.5404 33.9319 62.7411 33.5606C62.9418 33.1894 63.0421 32.7379 63.0421 32.2061C63.0421 31.4135 62.8314 30.8065 62.41 30.3851C61.9986 29.9536 61.4919 29.7379 60.8899 29.7379C60.2879 29.7379 59.7813 29.9536 59.3699 30.3851C58.9686 30.8065 58.7679 31.4135 58.7679 32.2061C58.7679 32.9988 58.9635 33.6108 59.3548 34.0422C59.7562 34.4636 60.2578 34.6743 60.8598 34.6743ZM77.1093 27.9169C78.1327 27.9169 78.9554 28.2329 79.5775 28.865C80.2096 29.4871 80.5256 30.36 80.5256 31.4837V36.375H78.4186V31.7697C78.4186 31.1175 78.2531 30.6209 77.922 30.2797C77.5909 29.9286 77.1394 29.753 76.5675 29.753C75.9956 29.753 75.539 29.9286 75.1979 30.2797C74.8668 30.6209 74.7013 31.1175 74.7013 31.7697V36.375H72.5943V31.7697C72.5943 31.1175 72.4287 30.6209 72.0976 30.2797C71.7665 29.9286 71.315 29.753 70.7431 29.753C70.1612 29.753 69.6996 29.9286 69.3585 30.2797C69.0274 30.6209 68.8619 31.1175 68.8619 31.7697V36.375H66.7549V28.0373H68.8619V29.0456C69.1328 28.6945 69.4789 28.4185 69.9003 28.2179C70.3317 28.0172 70.8033 27.9169 71.315 27.9169C71.9672 27.9169 72.5491 28.0573 73.0608 28.3383C73.5725 28.6092 73.9688 29.0005 74.2498 29.5122C74.5207 29.0306 74.912 28.6443 75.4237 28.3533C75.9454 28.0624 76.5073 27.9169 77.1093 27.9169ZM83.5936 27.044C83.2223 27.044 82.9113 26.9286 82.6605 26.6978C82.4197 26.457 82.2993 26.161 82.2993 25.8099C82.2993 25.4587 82.4197 25.1677 82.6605 24.937C82.9113 24.6962 83.2223 24.5758 83.5936 24.5758C83.9648 24.5758 84.2708 24.6962 84.5116 24.937C84.7625 25.1677 84.8879 25.4587 84.8879 25.8099C84.8879 26.161 84.7625 26.457 84.5116 26.6978C84.2708 26.9286 83.9648 27.044 83.5936 27.044ZM84.632 28.0373V36.375H82.525V28.0373H84.632ZM91.3341 27.9169C92.3274 27.9169 93.1301 28.2329 93.7421 28.865C94.3541 29.4871 94.6601 30.36 94.6601 31.4837V36.375H92.5531V31.7697C92.5531 31.1075 92.3876 30.6008 92.0565 30.2496C91.7254 29.8884 91.2739 29.7078 90.702 29.7078C90.1201 29.7078 89.6585 29.8884 89.3174 30.2496C88.9863 30.6008 88.8207 31.1075 88.8207 31.7697V36.375H86.7137V28.0373H88.8207V29.0757C89.1017 28.7145 89.4579 28.4336 89.8893 28.2329C90.3308 28.0222 90.8124 27.9169 91.3341 27.9169ZM96.122 32.176C96.122 31.3332 96.2875 30.5857 96.6186 29.9336C96.9598 29.2814 97.4163 28.7797 97.9882 28.4286C98.5701 28.0774 99.2173 27.9018 99.9296 27.9018C100.552 27.9018 101.094 28.0272 101.555 28.2781C102.027 28.5289 102.403 28.845 102.684 29.2262V28.0373H104.806V36.375H102.684V35.1559C102.413 35.5472 102.037 35.8733 101.555 36.1342C101.083 36.385 100.537 36.5104 99.9146 36.5104C99.2123 36.5104 98.5701 36.3298 97.9882 35.9686C97.4163 35.6074 96.9598 35.1007 96.6186 34.4486C96.2875 33.7864 96.122 33.0289 96.122 32.176ZM102.684 32.2061C102.684 31.6944 102.583 31.258 102.383 30.8968C102.182 30.5255 101.911 30.2446 101.57 30.054C101.229 29.8533 100.863 29.753 100.471 29.753C100.08 29.753 99.7189 29.8483 99.3878 30.0389C99.0567 30.2296 98.7858 30.5105 98.5751 30.8817C98.3745 31.2429 98.2741 31.6744 98.2741 32.176C98.2741 32.6777 98.3745 33.1192 98.5751 33.5004C98.7858 33.8717 99.0567 34.1576 99.3878 34.3583C99.729 34.5589 100.09 34.6593 100.471 34.6593C100.863 34.6593 101.229 34.564 101.57 34.3733C101.911 34.1727 102.182 33.8917 102.383 33.5305C102.583 33.1593 102.684 32.7178 102.684 32.2061ZM106.322 32.176C106.322 31.3332 106.487 30.5857 106.819 29.9336C107.16 29.2814 107.621 28.7797 108.203 28.4286C108.785 28.0774 109.432 27.9018 110.145 27.9018C110.686 27.9018 111.203 28.0222 111.695 28.263C112.186 28.4938 112.578 28.8048 112.869 29.1961V25.238H115.006V36.375H112.869V35.1409C112.608 35.5522 112.242 35.8833 111.77 36.1342C111.298 36.385 110.752 36.5104 110.13 36.5104C109.427 36.5104 108.785 36.3298 108.203 35.9686C107.621 35.6074 107.16 35.1007 106.819 34.4486C106.487 33.7864 106.322 33.0289 106.322 32.176ZM112.884 32.2061C112.884 31.6944 112.783 31.258 112.583 30.8968C112.382 30.5255 112.111 30.2446 111.77 30.054C111.429 29.8533 111.063 29.753 110.671 29.753C110.28 29.753 109.919 29.8483 109.588 30.0389C109.257 30.2296 108.986 30.5105 108.775 30.8817C108.574 31.2429 108.474 31.6744 108.474 32.176C108.474 32.6777 108.574 33.1192 108.775 33.5004C108.986 33.8717 109.257 34.1576 109.588 34.3583C109.929 34.5589 110.29 34.6593 110.671 34.6593C111.063 34.6593 111.429 34.564 111.77 34.3733C112.111 34.1727 112.382 33.8917 112.583 33.5305C112.783 33.1593 112.884 32.7178 112.884 32.2061ZM120.766 36.5104C119.963 36.5104 119.241 36.3348 118.599 35.9837C117.957 35.6225 117.45 35.1158 117.079 34.4636C116.717 33.8115 116.537 33.059 116.537 32.2061C116.537 31.3533 116.722 30.6008 117.094 29.9486C117.475 29.2965 117.992 28.7948 118.644 28.4436C119.296 28.0824 120.023 27.9018 120.826 27.9018C121.629 27.9018 122.356 28.0824 123.008 28.4436C123.661 28.7948 124.172 29.2965 124.543 29.9486C124.925 30.6008 125.115 31.3533 125.115 32.2061C125.115 33.059 124.92 33.8115 124.528 34.4636C124.147 35.1158 123.625 35.6225 122.963 35.9837C122.311 36.3348 121.579 36.5104 120.766 36.5104ZM120.766 34.6743C121.147 34.6743 121.503 34.584 121.834 34.4034C122.176 34.2128 122.446 33.9319 122.647 33.5606C122.848 33.1894 122.948 32.7379 122.948 32.2061C122.948 31.4135 122.737 30.8065 122.316 30.3851C121.905 29.9536 121.398 29.7379 120.796 29.7379C120.194 29.7379 119.687 29.9536 119.276 30.3851C118.875 30.8065 118.674 31.4135 118.674 32.2061C118.674 32.9988 118.87 33.6108 119.261 34.0422C119.662 34.4636 120.164 34.6743 120.766 34.6743Z" fill="#1F2041"></path><g clip-path="url(#clip0_2_72)"><path d="M39.5177 3.83844C40.4608 3.83844 41.0972 4.80164 40.7246 5.66737L27.4318 37.4673C26.9273 38.6312 25.7778 39.3851 24.5078 39.3851H15.4234C14.4802 39.3851 13.8209 38.4534 14.1964 37.5877L15.237 35.0908L17.5074 21.8325L24.1036 13.8144L27.4634 5.75624C27.965 4.59237 28.9053 3.83844 30.1752 3.83844H39.5177Z" fill="#4285F4"></path><path d="M24.1494 13.7026C21.8389 11.458 18.6741 10.0906 15.1939 10.1279C8.22219 10.2053 2.62933 15.9042 2.70673 22.8559C2.78126 29.6986 8.32253 35.2026 15.1481 35.3001C15.1796 35.2141 21.2541 25.6796 21.2541 25.6796C21.2541 25.6796 24.1494 13.7084 24.1494 13.7026Z" fill="#FBBC04"></path><path d="M24.1494 13.7026C24.1494 13.7026 15.1395 35.303 15.1481 35.303C15.257 35.3058 15.3659 35.3058 15.4749 35.303C22.4495 35.2256 28.0395 29.5295 27.9621 22.575C27.9248 19.0948 26.4685 15.9587 24.1494 13.7026Z" fill="#EA4335"></path></g><defs><clipPath id="clip0_2_72"><rect width="43" height="43" fill="white" transform="translate(0.181274 -1.14441e-05)"></rect></clipPath></defs></svg>