<svg xmlns="http://www.w3.org/2000/svg" width="35" height="35" viewBox="0 0 35 35" fill="none"><path fill-rule="evenodd" clip-rule="evenodd" d="M0 17.5C0 7.83503 7.83504 0 17.5001 0C27.1651 0 35 7.83503 35 17.5C35 27.1648 27.1651 35 17.5001 35C7.83504 35 0 27.1648 0 17.5ZM17.5001 2.51024C9.22142 2.51024 2.51028 9.2214 2.51028 17.5C2.51028 25.7786 9.22142 32.4897 17.5001 32.4897C25.7786 32.4897 32.4897 25.7786 32.4897 17.5C32.4897 9.2214 25.7786 2.51024 17.5001 2.51024ZM23.7194 11.2813C24.2352 11.7973 24.2352 12.6338 23.7194 13.1498L19.3688 17.5003L23.7194 21.8508C24.2352 22.3668 24.2352 23.2034 23.7194 23.7193C23.2034 24.2352 22.3669 24.2352 21.8509 23.7193L17.5003 19.3688L13.1498 23.7193C12.6339 24.2352 11.7973 24.2352 11.2814 23.7193C10.7654 23.2034 10.7654 22.3668 11.2814 21.8508L15.6319 17.5003L11.2814 13.1498C10.7654 12.6338 10.7654 11.7973 11.2814 11.2813C11.7973 10.7654 12.6339 10.7654 13.1498 11.2813L17.5003 15.6319L21.8509 11.2813C22.3669 10.7654 23.2034 10.7654 23.7194 11.2813Z" fill="#FF0000" style="fill:#FF0000;fill:color(display-p3 1.0000 0.0000 0.0000);fill-opacity:1;"></path></svg>