<?xml version="1.0" encoding="UTF-8"?>
<svg xmlns="http://www.w3.org/2000/svg" xmlns:xlink="http://www.w3.org/1999/xlink" width="595.2756pt" height="841.8898pt" viewBox="0 0 595.2756 841.8898" version="1.1">
<g id="surface1">
<path style=" stroke:none;fill-rule:evenodd;fill:rgb(25.881958%,58.432007%,81.96106%);fill-opacity:1;" d="M 472.179688 436.09375 C 473.773438 436.082031 473.785156 436.050781 473.792969 435.441406 C 473.800781 434.832031 473.800781 433.636719 473.800781 433.039063 C 473.800781 432.441406 473.800781 432.441406 473.234375 432.464844 C 469.070313 432.617188 463.511719 431.578125 461.191406 427.765625 C 460.308594 426.3125 459.613281 424.367188 459.316406 421.132813 C 459.015625 417.898438 459.117188 413.378906 459.179688 402.941406 C 459.242188 392.507813 459.273438 376.160156 459.257813 364.941406 L 459.25 360.457031 L 474.996094 360.457031 L 474.996094 351.414063 L 459.222656 351.414063 C 459.210938 347.683594 459.203125 344.613281 459.222656 341.535156 C 459.257813 335.429688 459.386719 329.300781 459.59375 325.414063 C 459.796875 321.523438 460.082031 319.875 460.652344 318.554688 C 461.21875 317.230469 462.074219 316.234375 462.996094 315.539063 C 463.921875 314.84375 464.917969 314.445313 466.378906 314.273438 C 467.84375 314.105469 469.777344 314.160156 471.015625 314.402344 C 472.253906 314.644531 472.792969 315.070313 473.160156 315.523438 C 473.53125 315.980469 473.730469 316.464844 473.800781 316.863281 C 473.871094 317.257813 473.816406 317.574219 473.402344 318.566406 C 472.992188 319.5625 472.222656 321.242188 471.613281 322.820313 C 471 324.398438 470.546875 325.875 470.402344 327.398438 C 469.0625 341.71875 491.097656 342.886719 492.015625 327.253906 C 492.128906 325.304688 491.8125 323.257813 491.089844 321.398438 C 490.363281 319.535156 489.226563 317.855469 488.089844 316.492188 C 486.953125 315.128906 485.8125 314.074219 483.667969 312.9375 C 470.667969 306.050781 451.875 307.46875 440.976563 317.6875 C 439.609375 318.964844 438.644531 320.132813 437.675781 321.554688 C 436.710938 322.976563 435.742188 324.652344 435.003906 326.289063 C 434.265625 327.921875 433.753906 329.515625 433.441406 330.980469 C 433.128906 332.441406 433.015625 333.78125 432.914063 335.371094 C 432.8125 336.964844 432.730469 338.8125 432.671875 346.117188 L 432.632813 351.414063 L 422.195313 351.414063 L 422.195313 360.457031 L 432.578125 360.457031 C 432.476563 378.945313 432.445313 397.4375 432.34375 415.921875 C 432.300781 423.65625 432.304688 424.511719 432.167969 425.328125 C 431.519531 429.257813 428.449219 431.09375 424.8125 431.734375 C 423.757813 431.917969 422.679688 432.03125 422.140625 432.089844 C 421.597656 432.148438 421.597656 432.148438 421.589844 432.289063 C 421.585938 432.429688 421.570313 432.714844 421.5625 433.382813 C 421.554688 434.050781 421.554688 435.105469 421.554688 435.628906 C 421.554688 436.15625 421.554688 436.15625 421.785156 436.15625 C 438.5625 436.15625 455.410156 436.242188 472.179688 436.09375 Z M 72.117188 292.871094 L 181.773438 292.871094 C 186.769531 292.871094 191.3125 294.914063 194.601563 298.207031 C 197.894531 301.5 199.9375 306.039063 199.9375 311.035156 L 199.9375 422.886719 C 199.9375 427.882813 197.894531 432.425781 194.601563 435.71875 C 191.3125 439.007813 186.769531 441.050781 181.773438 441.050781 L 72.117188 441.050781 C 67.121094 441.050781 62.578125 439.007813 59.289063 435.71875 C 55.996094 432.425781 53.953125 427.882813 53.953125 422.886719 L 53.953125 311.035156 C 53.953125 306.039063 55.996094 301.5 59.289063 298.207031 C 62.578125 294.914063 67.121094 292.871094 72.117188 292.871094 Z M 198.132813 346.539063 C 160.261719 365.429688 139.707031 396.332031 136.46875 439.246094 L 146.636719 439.246094 L 146.636719 439.0625 C 146.636719 412.605469 169.523438 391.058594 198.132813 390.136719 Z M 126.90625 439.246094 C 123.507813 365.789063 133.367188 317.597656 157.9375 294.675781 L 72.117188 294.675781 C 67.617188 294.675781 63.527344 296.519531 60.5625 299.484375 C 57.597656 302.449219 55.757813 306.539063 55.757813 311.035156 L 55.757813 347.328125 C 92.066406 363.796875 112.371094 394.566406 116.863281 439.246094 Z M 106.925781 439.246094 C 102.296875 408.59375 85.367188 391.429688 55.757813 389.359375 L 55.757813 422.886719 C 55.757813 427.386719 57.597656 431.476563 60.5625 434.441406 C 63.527344 437.40625 67.617188 439.246094 72.117188 439.246094 Z M 345.601563 489.230469 C 355.636719 489.082031 358.011719 489.046875 358.011719 489.046875 C 358.011719 482.394531 358.011719 479.070313 358.011719 479.070313 C 348.96875 479.070313 344.449219 479.070313 344.449219 479.070313 C 335.351563 478.550781 334.894531 467.046875 338.050781 464.054688 C 344.71875 457.257813 352.390625 462.164063 353.914063 465.078125 C 360.058594 461.554688 363.128906 459.792969 363.128906 459.792969 C 357.136719 451.355469 349.316406 448.371094 339.671875 450.835938 C 330.464844 454.292969 325.71875 460.492188 325.425781 469.429688 C 325.253906 474.367188 327.074219 479.089844 330.886719 483.589844 C 321.972656 490.089844 318.730469 498.679688 321.164063 509.351563 C 325.703125 520.320313 332.953125 526.292969 342.914063 527.265625 C 351.828125 527.6875 359.050781 524.902344 364.578125 518.90625 C 369.671875 523.675781 373.996094 526.546875 377.546875 527.519531 C 382.277344 522.265625 385.433594 517.230469 387.011719 512.421875 C 390.488281 520.394531 396.617188 526.125 404.5 526.667969 C 424.628906 526.667969 434.695313 526.667969 434.695313 526.667969 C 436.660156 526.558594 438.28125 525.277344 438.277344 523.855469 C 438.277344 508.441406 438.277344 500.738281 438.277344 500.738281 C 438.792969 497.242188 440.910156 495.621094 444.632813 495.875 C 447.949219 495.941406 450.039063 497.902344 450.902344 501.761719 C 448.089844 513.605469 457.242188 526.511719 469.242188 526.414063 C 498.472656 526.699219 513.085938 526.839844 513.085938 526.839844 C 516.996094 526.496094 519.613281 524.421875 520.933594 520.613281 C 520.492188 534.5 523.875 543.96875 531.085938 549.019531 C 535.75 544.410156 538.082031 542.109375 538.082031 542.109375 C 533.980469 537.171875 531.90625 532.023438 531.851563 526.667969 C 531.738281 505.683594 531.683594 495.195313 531.683594 495.195313 C 538.054688 495.136719 541.238281 495.109375 541.238281 495.109375 C 541.292969 488.398438 541.324219 485.042969 541.324219 485.042969 C 534.953125 485.15625 531.769531 485.214844 531.769531 485.214844 C 531.828125 474.808594 531.855469 469.605469 531.855469 469.605469 C 524.40625 469.605469 520.679688 469.605469 520.679688 469.605469 C 520.792969 479.953125 520.851563 485.128906 520.851563 485.128906 C 503.449219 485.128906 494.75 485.128906 494.75 485.128906 C 490.699219 485.308594 488.652344 487.355469 488.605469 491.269531 C 488.09375 491.8125 487.410156 491.628906 486.5625 490.71875 C 480.4375 485.675781 474.027344 484.011719 467.324219 485.726563 C 461.988281 486.292969 457.296875 489.03125 453.675781 494.660156 C 453.359375 495.035156 452.910156 494.902344 452.910156 494.171875 C 452.910156 490.417969 452.921875 488.179688 452.921875 488.179688 C 446.40625 482.640625 438.375 489.585938 438.28125 487.773438 C 438.339844 486.097656 438.378906 485.128906 438.378906 485.128906 C 431.355469 485.101563 427.832031 485.214844 427.832031 485.214844 C 427.746094 491.699219 427.703125 494.9375 427.703125 494.9375 C 422.183594 487.292969 415.359375 484.320313 405.1875 485.386719 C 398.285156 485.769531 390.714844 493.652344 390.6875 492.59375 C 390.542969 487.816406 390.472656 485.429688 390.472656 485.429688 C 383.535156 488.214844 380.066406 489.609375 380.066406 489.609375 C 381.375 497.761719 379.613281 505.835938 374.777344 513.835938 C 371.242188 511.226563 368.402344 506.621094 366.246094 500.015625 C 358.742188 500.128906 354.988281 500.1875 354.988281 500.1875 C 355.90625 504.222656 357.070313 507.265625 358.484375 509.3125 C 352.691406 518.585938 340.25 519.46875 333.726563 510.707031 C 326.519531 501.019531 335.460938 488.71875 345.601563 489.230469 Z M 520.21875 516.101563 C 520.867188 516.398438 521.179688 516.054688 521.15625 515.078125 C 520.929688 501.769531 520.816406 495.117188 520.816406 495.117188 C 511.601563 495.175781 506.996094 495.203125 506.996094 495.203125 C 504.382813 495.449219 504.058594 497.515625 505.886719 499.296875 C 515.441406 510.5 520.21875 516.101563 520.21875 516.101563 Z M 503.351563 512.796875 C 499.140625 507.773438 495.246094 503.4375 491.664063 499.789063 C 480.460938 511.246094 474.859375 516.976563 474.859375 516.976563 C 492.574219 517.035156 501.433594 517.0625 501.433594 517.0625 C 503.929688 516.527344 504.570313 515.105469 503.351563 512.796875 Z M 479.382813 498.253906 C 468.804688 508.09375 463.515625 513.011719 463.515625 513.011719 C 454.355469 502.277344 469.332031 488.679688 479.382813 498.253906 Z M 415.621094 498.484375 C 405.472656 507.921875 400.398438 512.644531 400.398438 512.644531 C 391.609375 502.34375 405.976563 489.296875 415.621094 498.484375 Z M 427.691406 514.890625 C 427.523438 505.960938 427.4375 501.496094 427.4375 501.496094 C 416.859375 511.734375 411.570313 516.851563 411.570313 516.851563 C 421.039063 517.136719 425.773438 517.277344 425.773438 517.277344 C 427.058594 517.195313 427.730469 516.035156 427.691406 514.890625 Z M 273.496094 493.679688 L 284.894531 493.679688 L 284.894531 494.691406 L 284.332031 494.691406 C 283.53125 494.691406 282.933594 494.867188 282.535156 495.222656 C 282.136719 495.578125 281.9375 496.027344 281.9375 496.5625 C 281.9375 497.273438 282.234375 498.265625 282.816406 499.527344 L 288.761719 512.269531 L 294.183594 498.320313 C 294.484375 497.574219 294.636719 496.824219 294.636719 496.09375 C 294.636719 495.765625 294.574219 495.515625 294.445313 495.355469 C 294.3125 495.148438 294.085938 494.988281 293.785156 494.867188 C 293.484375 494.746094 292.953125 494.691406 292.191406 494.691406 L 292.191406 493.679688 L 300.09375 493.679688 L 300.09375 494.691406 C 299.441406 494.765625 298.933594 494.90625 298.582031 495.128906 C 298.226563 495.34375 297.839844 495.757813 297.410156 496.355469 C 297.246094 496.609375 296.949219 497.3125 296.503906 498.460938 L 286.613281 523.59375 C 285.652344 526.03125 284.402344 527.863281 282.84375 529.109375 C 281.292969 530.355469 279.796875 530.972656 278.355469 530.972656 C 277.3125 530.972656 276.453125 530.664063 275.78125 530.035156 C 275.101563 529.417969 274.765625 528.707031 274.765625 527.902344 C 274.765625 527.132813 275.011719 526.515625 275.5 526.058594 C 275.988281 525.589844 276.660156 525.355469 277.511719 525.355469 C 278.101563 525.355469 278.898438 525.542969 279.90625 525.925781 C 280.625 526.179688 281.066406 526.308594 281.238281 526.308594 C 281.773438 526.308594 282.355469 526.03125 282.988281 525.46875 C 283.613281 524.914063 284.25 523.828125 284.894531 522.21875 L 286.597656 517.820313 L 277.832031 498.894531 C 277.558594 498.320313 277.140625 497.609375 276.550781 496.757813 C 276.109375 496.121094 275.746094 495.683594 275.464844 495.464844 C 275.054688 495.167969 274.402344 494.914063 273.496094 494.691406 Z M 254.425781 498.058594 C 256.773438 494.652344 259.308594 492.949219 262.03125 492.949219 C 264.523438 492.949219 266.699219 494.054688 268.558594 496.253906 C 270.414063 498.453125 271.339844 501.464844 271.339844 505.285156 C 271.339844 509.742188 269.90625 513.335938 267.042969 516.058594 C 264.578125 518.398438 261.832031 519.570313 258.800781 519.570313 C 257.390625 519.570313 255.957031 519.308594 254.496094 518.773438 C 253.027344 518.242188 251.542969 517.4375 250.019531 516.367188 L 250.019531 490.421875 C 250.019531 487.574219 249.953125 485.824219 249.820313 485.167969 C 249.683594 484.503906 249.476563 484.066406 249.195313 483.820313 C 248.902344 483.585938 248.550781 483.464844 248.125 483.464844 C 247.625 483.464844 247.007813 483.617188 246.257813 483.90625 L 245.886719 482.894531 L 253.226563 479.804688 L 254.425781 479.804688 Z M 254.425781 499.800781 L 254.425781 514.785156 C 255.332031 515.695313 256.265625 516.386719 257.226563 516.855469 C 258.1875 517.316406 259.175781 517.546875 260.191406 517.546875 C 261.792969 517.546875 263.300781 516.640625 264.6875 514.816406 C 266.074219 512.988281 266.769531 510.339844 266.769531 506.859375 C 266.769531 503.648438 266.074219 501.1875 264.6875 499.464844 C 263.300781 497.742188 261.722656 496.878906 259.945313 496.878906 C 259.011719 496.878906 258.070313 497.125 257.136719 497.621094 C 256.425781 497.984375 255.519531 498.714844 254.425781 499.800781 Z M 305.8125 307.128906 L 306.761719 349.1875 L 302.957031 349.1875 C 301.148438 338.65625 296.738281 330.1875 289.699219 323.78125 C 282.625 317.375 275.011719 314.167969 266.828125 314.167969 C 260.484375 314.167969 255.472656 315.851563 251.792969 319.246094 C 248.082031 322.605469 246.242188 326.507813 246.242188 330.886719 C 246.242188 333.675781 246.910156 336.152344 248.210938 338.339844 C 249.984375 341.226563 252.871094 344.113281 256.871094 346.96875 C 259.789063 348.996094 266.511719 352.644531 277.042969 357.847656 C 291.824219 365.078125 301.78125 371.929688 306.921875 378.367188 C 312.027344 384.808594 314.566406 392.164063 314.566406 400.476563 C 314.566406 411.007813 310.441406 420.046875 302.226563 427.628906 C 294.011719 435.207031 283.578125 439.015625 270.921875 439.015625 C 266.957031 439.015625 263.179688 438.601563 259.660156 437.808594 C 256.109375 437.015625 251.667969 435.492188 246.339844 433.242188 C 243.355469 432.003906 240.914063 431.402344 238.980469 431.402344 C 237.363281 431.402344 235.679688 432.035156 233.875 433.273438 C 232.066406 434.542969 230.605469 436.445313 229.496094 439.015625 L 226.261719 439.015625 L 226.261719 391.4375 L 229.496094 391.4375 C 232.222656 404.789063 237.488281 415.003906 245.261719 422.011719 C 253.0625 429.023438 261.4375 432.542969 270.445313 432.542969 C 277.390625 432.542969 282.941406 430.640625 287.066406 426.867188 C 291.1875 423.089844 293.25 418.714844 293.25 413.671875 C 293.25 410.722656 292.457031 407.835938 290.871094 405.042969 C 289.285156 402.253906 286.90625 399.621094 283.671875 397.082031 C 280.4375 394.578125 274.726563 391.308594 266.542969 387.28125 C 255.0625 381.667969 246.8125 376.847656 241.804688 372.882813 C 236.824219 368.914063 232.984375 364.476563 230.289063 359.589844 C 227.59375 354.675781 226.261719 349.28125 226.261719 343.414063 C 226.261719 333.359375 229.941406 324.796875 237.332031 317.722656 C 244.6875 310.648438 253.984375 307.128906 265.210938 307.128906 C 269.300781 307.128906 273.269531 307.605469 277.105469 308.585938 C 280.023438 309.347656 283.578125 310.710938 287.761719 312.710938 C 291.949219 314.710938 294.867188 315.691406 296.550781 315.691406 C 298.167969 315.691406 299.433594 315.214844 300.355469 314.234375 C 301.273438 313.25 302.164063 310.871094 302.957031 307.128906 Z M 369.652344 348.941406 C 377.476563 348.941406 384.773438 350.832031 391.542969 354.636719 C 398.277344 358.445313 403.429688 363.859375 406.925781 370.855469 C 410.425781 377.847656 412.175781 385.492188 412.175781 393.820313 C 412.175781 405.828125 408.941406 415.886719 402.4375 423.964844 C 394.578125 433.742188 383.75 438.632813 369.949219 438.632813 C 356.378906 438.632813 345.910156 434.175781 338.582031 425.230469 C 331.25 416.320313 327.585938 405.949219 327.585938 394.191406 C 327.585938 382.058594 331.316406 371.503906 338.8125 362.46875 C 346.308594 353.460938 356.578125 348.941406 369.652344 348.941406 Z M 370.082031 355.257813 C 366.8125 355.257813 364.003906 356.433594 361.660156 358.753906 C 359.316406 361.074219 357.765625 365.65625 357.039063 372.496094 C 356.277344 379.367188 355.917969 388.867188 355.917969 401.0625 C 355.917969 407.53125 356.378906 413.566406 357.269531 419.199219 C 357.964844 423.46875 359.480469 426.75 361.792969 428.976563 C 364.105469 431.207031 366.746094 432.320313 369.683594 432.320313 C 372.589844 432.320313 375 431.578125 376.914063 430.0625 C 379.425781 428.019531 381.074219 425.140625 381.933594 421.457031 C 383.222656 415.730469 383.847656 404.125 383.847656 386.671875 C 383.847656 376.425781 383.253906 369.371094 382.03125 365.53125 C 380.8125 361.695313 378.996094 358.910156 376.617188 357.144531 C 374.964844 355.875 372.789063 355.257813 370.082031 355.257813 Z M 492.441406 416.839844 C 492.726563 378.679688 492.355469 359.558594 492.355469 359.558594 C 486.78125 359.558594 483.996094 359.558594 483.996094 359.558594 C 483.996094 356.148438 483.996094 354.441406 483.996094 354.441406 C 495.679688 343.867188 505.855469 332.382813 514.535156 319.980469 C 517.433594 319.980469 518.882813 319.980469 518.882813 319.980469 L 518.992188 351.414063 L 536.714844 351.414063 L 536.714844 360.457031 L 519.027344 360.457031 L 519.226563 418.074219 C 519.78125 427.453125 527.71875 427.589844 532.75 422.125 C 534.132813 420.621094 535.570313 418.601563 537.054688 416.070313 C 539.839844 417.917969 541.234375 418.84375 541.234375 418.84375 C 533.546875 435.539063 520.808594 441.796875 503.019531 437.609375 C 495.414063 435.828125 492.226563 428.25 492.441406 416.839844 "/>
</g>
</svg>
